# xmcd
#
# Track frame offsets: 
#        150
#        11532
#        24901
#        42723
#        53096
#        67088
#        78165
#        90018
#        98428
#        108402
#        122159
#        135469
#        148791
#        161819
#        173119
#        185207
#        194558
#        208456
#        217971
#        229659
#        239151
#        251556
#        262656
#        275014
#        285141
#        297722
#        311655
#        324330
#        333422
#
# Disc length: 4613 seconds
#
# Revision: 0
# Processed by: cddbd v1.5.2PL0 Copyright (c) Steve Scherf et al.
# Submitted via: ExactAudioCopy v1.3
#
DISCID=af12031d
DTITLE=Marty Robbins - Devil Woman 1961-1962 [CD2]
DYEAR=2017
DGENRE=Country
TTITLE0=The Bend In The River
TTITLE1=Abilene Rose
TTITLE2=Lolene
TTITLE3=Foggy Foggy Dew
TTITLE4=Beyond The Reef
TTITLE5=Ka-Lu-A
TTITLE6=Yours (Quiéreme Mucho)
TTITLE7=Dusty Winds
TTITLE8=No One Will Ever Know
TTITLE9=The Nearness Of You
TTITLE10=All The Way (Alternate Version)
TTITLE11=I’ll Walk Alone
TTITLE12=Devil Woman
TTITLE13=Ain’t Life A Crying Shame
TTITLE14=Time Can’t Make Me Forget
TTITLE15=In The Ashes Of An Old Love Affair
TTITLE16=The Hand You’re Holding Now
TTITLE17=Worried
TTITLE18=Little Rich Girl
TTITLE19=Progressive Love
TTITLE20=I’m Beginning To Forget
TTITLE21=Love Is A Hurting Thing
TTITLE22=Kinda Halfway Feel
TTITLE23=The Wine Flowed Freely
TTITLE24=Love Can’t Wait
TTITLE25=Too Far Gone
TTITLE26=April Fool’s Day
TTITLE27=Ruby Ann
TTITLE28=Won’t You Forgive
EXTD=
EXTT0=
EXTT1=
EXTT2=
EXTT3=
EXTT4=
EXTT5=
EXTT6=
EXTT7=
EXTT8=
EXTT9=
EXTT10=
EXTT11=
EXTT12=
EXTT13=
EXTT14=
EXTT15=
EXTT16=
EXTT17=
EXTT18=
EXTT19=
EXTT20=
EXTT21=
EXTT22=
EXTT23=
EXTT24=
EXTT25=
EXTT26=
EXTT27=
EXTT28=
PLAYORDER=
